<svg xmlns="http://www.w3.org/2000/svg" viewBox="0 0 140 62.6"><g id="Layer_2" data-name="Layer 2"><g id="Layer_1-2" data-name="Layer 1"><path d="M.35,17.71S-3,45.59,11.07,55.52c10.78,7.61,23.61-6,25.81-17.1C40.58,19.7,7.82-5.64.35,17.71Z"/><path d="M57.75,53.7l.18-.13.07-.06A.47.47,0,0,0,57.75,53.7Z"/><path d="M58.82,52.65c-.12.09-.07.07,0,0Z"/><path d="M56.86,54.21l.21-.11a.51.51,0,0,0-.27.12Z"/><path d="M59.09,43.8,59,43.66l.13.15Z"/><path d="M60.33,47h0s0-.16,0-.25a.13.13,0,0,1,0-.06C60.23,46.89,60.31,47.06,60.33,47Z"/><path d="M61.47,38.13C58.55,36,54.58,35.62,51.1,35.89c-.15,0-.29,0-.43.06l-.35,0a11.39,11.39,0,0,0-9.38,8.79,14.46,14.46,0,0,0,3.25,12.15,11.83,11.83,0,0,0,12.46,3.5,16.43,16.43,0,0,0,3.89-1.57,11.84,11.84,0,0,0,3.39-3.3,13.64,13.64,0,0,0,2.27-8.11A11.82,11.82,0,0,0,61.47,38.13Zm-6.63,3.65h.08C54.77,41.78,54.32,41.68,54.84,41.78Zm4.86,9.4c-.13.38,0,.09,0-.08Zm.64-2.6,0,.37h0c-.12.51-.2,1-.36,1.51a5.89,5.89,0,0,1-.21.59l-.2.44c-.11.22-.23.43-.36.64l-.25.39-.11.12.07,0,0,0-.1.09-.3.34c-.17.18-.35.34-.53.51h0l-.11.07-.06,0c-.1.1-.12.11-.12.08h0a5.63,5.63,0,0,1-.62.37l0,0c.06,0,.06,0-.18.1h0l-.07,0v0l-.73.22c-.49.16-1,.36-1.46.48l-.63.15-.17,0c-.41,0-.81,0-1.22,0-.15,0-.31,0-.47,0l-.14,0a10.8,10.8,0,0,1-1.11-.32h0l-.49-.25c-.31-.17-.6-.37-.9-.57v0L49,53.47c-.26-.25-.49-.52-.72-.79s-.24-.35-.35-.53a9.66,9.66,0,0,1-.56-1c-.06-.11-.11-.23-.16-.34s-.05-.13-.07-.19c-.27-.73-.34-1.5-.56-2.23a4.32,4.32,0,0,1,0-.5,10.4,10.4,0,0,1,0-1.25v-.08l.09-.49c.09-.38.22-.74.33-1.1l.06-.14c.1-.19.2-.38.31-.56s.17-.27.26-.41l.12-.16c.22-.24.79-.59.95-.88l.11-.07c.2-.13.41-.25.62-.37s.4-.16.57-.26l.2-.07a12.87,12.87,0,0,1,1.32-.35c.51,0,1-.05,1.51,0l.87,0a4.4,4.4,0,0,0,1.08.11l.33.06c.29,0,.57.12.85.19s.63.19.94.3l.14,0a3.22,3.22,0,0,1,.33.19c.28.15.54.32.82.49l0,0,.18.17c.13.13.26.26.38.4-.08-.09.06,0,.13.14l.07.08-.07-.07h0c.11.18.23.35.33.53s.27.46.39.7l0,.07,0,.06c.17.5.29,1,.41,1.51a.13.13,0,0,1,0-.06.24.24,0,0,0,0,.12.36.36,0,0,1,0,.11.58.58,0,0,1,0,.15c0,.24,0,.49,0,.73S60.36,48.29,60.34,48.58Z"/><path d="M83.83,42.42l0,0a.53.53,0,0,0-.35.13A1.42,1.42,0,0,1,83.83,42.42Z"/><path d="M83.81,22.63a12.4,12.4,0,0,0-8.29.81,11.88,11.88,0,0,0-5,4.81,15.55,15.55,0,0,0-.67,14,11,11,0,0,0,4.66,5,14,14,0,0,0,8,1.37,10.55,10.55,0,0,0,7.31-3.78,14.28,14.28,0,0,0,3-7.82C93.42,31,90.1,24.2,83.81,22.63ZM87,37l0,.07a1.23,1.23,0,0,1,0,.2c0,.15,0,.21-.06.21a3.53,3.53,0,0,1-.05.38,11.35,11.35,0,0,1-.39,1.38c0,.08-.06.17-.1.26s-.18.39-.28.57-.25.44-.38.66l-.11.15,0,0,0,0-.09.13c-.18.27-.24.18-.1,0-.28.26-.56.67-.8.89h0l-.05,0c-.19.12-.38.24-.58.35a.61.61,0,0,1-.14.07h.09l-.11,0-.21.1c-.12.07-.16,0-.12,0-.14.06-.27.12-.37.15l-.59.13,0,0h-.17c-.34.07-.29,0-.15,0-.62,0-1.24,0-1.87,0a7.87,7.87,0,0,1-.84,0h-.13A11.69,11.69,0,0,1,78,42.48l-.12,0-.48-.24L77,41.93a.43.43,0,0,1-.19-.12l-.07-.06-.14-.09.09,0a7.15,7.15,0,0,1-.62-.61s-.09-.05-.16-.15l-.07-.11a.86.86,0,0,0-.13-.14l.08.07-.28-.42c-.22-.37-.37-.77-.58-1.13a.83.83,0,0,1,.07.13l0-.12c-.08-.23-.15-.47-.22-.71s-.18-.78-.25-1.18h0c0-.25-.05-.51-.06-.76,0-.45,0-.89,0-1.34,0-.14,0-.27,0-.41a.81.81,0,0,0,0,.11,1.25,1.25,0,0,0,0-.19s0-.1,0-.14a.58.58,0,0,1,0-.24c.17-.86.49-1.65.74-2.5-.08.25-.12.38-.13.44a3.72,3.72,0,0,1,.2-.54c.11-.22.23-.44.36-.65a6.65,6.65,0,0,1,.39-.63l.1-.14a11.68,11.68,0,0,1,1-1l.14-.12c.18-.12.35-.25.54-.36s.43-.24.65-.35.16-.06.22-.1l-.08.05c.43-.14.94-.18,1.36-.33h.2a7.85,7.85,0,0,1,.84,0l.36,0,.27,0,.62.13c.26.07.53.14.79.23h0l.17.07h0l.15.05-.09,0c.18.1.37.19.55.3a5.59,5.59,0,0,0,.61.44l.14.12c.17.16.33.33.49.5l.11.12,0-.07a.41.41,0,0,0,0,.09l.1.12c.11.12.12.17.1.18s.18.22.24.31c.25.4.45.82.66,1.23a.69.69,0,0,1,.05.13c.1.27.19.54.28.82.12.44.21.89.3,1.33a.28.28,0,0,1,0-.09.64.64,0,0,0,0,.19l0,.15a.34.34,0,0,1,0,.09c0-.07,0-.15,0-.24l0-.1c0,.36,0,.47.06.37,0,.29,0,.57,0,.86a12,12,0,0,1,0,1.47.66.66,0,0,0,0,.14S87,37,87,37Z"/><path d="M76.64,41.7l0,0,.16.12.1.06S76.93,41.85,76.64,41.7Z"/><path d="M82.26,42.86l.15,0,.13,0a1.11,1.11,0,0,0-.28,0Z"/><path d="M86.93,37.5a2.13,2.13,0,0,1,.08-.41v0C86.89,37.33,86.9,37.5,86.93,37.5Z"/><path d="M85.62,40.9h0a1,1,0,0,0-.19.15Z"/><path d="M83.3,28.61l-.06,0-.19-.08C82.89,28.46,82.88,28.53,83.3,28.61Z"/><path d="M85.42,30.41a1.2,1.2,0,0,1-.2-.3l0,0C85.28,30.31,85.38,30.41,85.42,30.41Z"/><path d="M78.61,28.44h0C78.26,28.56,78.05,28.82,78.61,28.44Z"/><path d="M75.74,40.76l.05.07a1.47,1.47,0,0,0,.1.13l.13.13S76,41,75.74,40.76Z"/><path d="M75,39.34c.12.27.31.54,0,0Z"/><path d="M74.5,34.35l0,.13c0,.08,0,.16,0,.25v.08C74.53,34.4,74.53,34.3,74.5,34.35Z"/><path d="M115.62,3.66c-13-3.9-1,32-9.62,35.83-3.37,1.39-7.57-.05-10.2,3.1-4.64,4.62-5.37,14.24,1,17.68,17.42,8.63,22.88-8.44,23.34-22.57C120.49,28.69,121.47,5.61,115.62,3.66Z"/><path d="M139.14,9.8c-.55-11.11-8.24-12.94-9.89-4.65-1.31,6.6.05,15,.92,21.64,1.16,8.79-5,29.53,2.26,34,7.56,3.77,7.07-11.37,7.46-18.15C140.24,31.74,139.69,20.79,139.14,9.8Z"/></g></g></svg>